<mxfile host="Electron" agent="Mozilla/5.0 (Windows NT 10.0; Win64; x64) AppleWebKit/537.36 (KHTML, like Gecko) draw.io/27.0.2 Chrome/134.0.6998.205 Electron/35.3.0 Safari/537.36" version="27.0.2">
  <diagram name="Page-1" id="_-TrsK5b0oLjdVeeoQtA">
    <mxGraphModel dx="1426" dy="1941" grid="0" gridSize="10" guides="1" tooltips="1" connect="1" arrows="1" fold="1" page="1" pageScale="1" pageWidth="850" pageHeight="1100" math="0" shadow="0">
      <root>
        <mxCell id="0" />
        <mxCell id="1" parent="0" />
        <mxCell id="6jc1xSiDu-6yMKRheQOk-2" value="a" style="rounded=0;whiteSpace=wrap;html=1;fontFamily=Comic Sans MS;" vertex="1" parent="1">
          <mxGeometry x="556" y="-132" width="223" height="60" as="geometry" />
        </mxCell>
        <mxCell id="6jc1xSiDu-6yMKRheQOk-14" style="edgeStyle=orthogonalEdgeStyle;rounded=0;orthogonalLoop=1;jettySize=auto;html=1;fontFamily=Comic Sans MS;" edge="1" parent="1" source="6jc1xSiDu-6yMKRheQOk-3" target="6jc1xSiDu-6yMKRheQOk-4">
          <mxGeometry relative="1" as="geometry" />
        </mxCell>
        <mxCell id="6jc1xSiDu-6yMKRheQOk-3" value="Lấy danh sách tất cả các level trong project&amp;nbsp; &amp;nbsp;" style="rounded=0;whiteSpace=wrap;html=1;align=left;fontFamily=Comic Sans MS;fillColor=#d5e8d4;strokeColor=#82b366;" vertex="1" parent="1">
          <mxGeometry x="127.5" y="149" width="250" height="60" as="geometry" />
        </mxCell>
        <mxCell id="6jc1xSiDu-6yMKRheQOk-15" style="edgeStyle=orthogonalEdgeStyle;rounded=0;orthogonalLoop=1;jettySize=auto;html=1;exitX=0.5;exitY=1;exitDx=0;exitDy=0;fontFamily=Comic Sans MS;" edge="1" parent="1" source="6jc1xSiDu-6yMKRheQOk-4" target="6jc1xSiDu-6yMKRheQOk-13">
          <mxGeometry relative="1" as="geometry" />
        </mxCell>
        <mxCell id="6jc1xSiDu-6yMKRheQOk-4" value="Tìm ViewFamilyType cho Floor Plan" style="rounded=0;whiteSpace=wrap;html=1;align=center;fontFamily=Comic Sans MS;fillColor=#d5e8d4;strokeColor=#82b366;" vertex="1" parent="1">
          <mxGeometry x="127.5" y="259" width="250" height="60" as="geometry" />
        </mxCell>
        <mxCell id="6jc1xSiDu-6yMKRheQOk-18" style="edgeStyle=orthogonalEdgeStyle;rounded=0;orthogonalLoop=1;jettySize=auto;html=1;entryX=0;entryY=0.5;entryDx=0;entryDy=0;fontFamily=Comic Sans MS;" edge="1" parent="1" source="6jc1xSiDu-6yMKRheQOk-6" target="6jc1xSiDu-6yMKRheQOk-7">
          <mxGeometry relative="1" as="geometry" />
        </mxCell>
        <mxCell id="6jc1xSiDu-6yMKRheQOk-6" value="Tạo Floor Plan&amp;nbsp;" style="rounded=0;whiteSpace=wrap;html=1;align=center;fontFamily=Comic Sans MS;fillColor=#d5e8d4;strokeColor=#82b366;" vertex="1" parent="1">
          <mxGeometry x="395" y="360" width="91" height="60" as="geometry" />
        </mxCell>
        <mxCell id="6jc1xSiDu-6yMKRheQOk-19" style="edgeStyle=orthogonalEdgeStyle;rounded=0;orthogonalLoop=1;jettySize=auto;html=1;entryX=0.5;entryY=0;entryDx=0;entryDy=0;fontFamily=Comic Sans MS;" edge="1" parent="1" source="6jc1xSiDu-6yMKRheQOk-7" target="6jc1xSiDu-6yMKRheQOk-8">
          <mxGeometry relative="1" as="geometry" />
        </mxCell>
        <mxCell id="6jc1xSiDu-6yMKRheQOk-7" value="Đặt tên view theo quy tắc:&lt;div&gt;sample case naming convention: MB - &amp;lt;LevelName&amp;gt;&lt;/div&gt;" style="rounded=0;whiteSpace=wrap;html=1;align=left;fontFamily=Comic Sans MS;fillColor=#d5e8d4;strokeColor=#82b366;" vertex="1" parent="1">
          <mxGeometry x="530" y="360" width="294" height="60" as="geometry" />
        </mxCell>
        <mxCell id="6jc1xSiDu-6yMKRheQOk-20" style="edgeStyle=orthogonalEdgeStyle;rounded=0;orthogonalLoop=1;jettySize=auto;html=1;fontFamily=Comic Sans MS;" edge="1" parent="1" source="6jc1xSiDu-6yMKRheQOk-8" target="6jc1xSiDu-6yMKRheQOk-10">
          <mxGeometry relative="1" as="geometry" />
        </mxCell>
        <mxCell id="6jc1xSiDu-6yMKRheQOk-8" value="Commit transaction để ghi thay đổi vào mô hình" style="rounded=0;whiteSpace=wrap;html=1;align=left;fontFamily=Comic Sans MS;fillColor=#d5e8d4;strokeColor=#82b366;" vertex="1" parent="1">
          <mxGeometry x="543" y="460" width="268" height="60" as="geometry" />
        </mxCell>
        <mxCell id="6jc1xSiDu-6yMKRheQOk-34" style="edgeStyle=orthogonalEdgeStyle;rounded=0;orthogonalLoop=1;jettySize=auto;html=1;fontFamily=Comic Sans MS;" edge="1" parent="1" source="6jc1xSiDu-6yMKRheQOk-10" target="6jc1xSiDu-6yMKRheQOk-33">
          <mxGeometry relative="1" as="geometry" />
        </mxCell>
        <mxCell id="6jc1xSiDu-6yMKRheQOk-10" value="Hiện thông báo hoàn thành&lt;br&gt;&lt;i&gt;Số lượng view đã tạo / bị skip&lt;/i&gt;" style="rounded=0;whiteSpace=wrap;html=1;align=center;fontFamily=Comic Sans MS;fillColor=#e1d5e7;strokeColor=#9673a6;" vertex="1" parent="1">
          <mxGeometry x="582" y="565" width="190" height="60" as="geometry" />
        </mxCell>
        <mxCell id="6jc1xSiDu-6yMKRheQOk-17" style="edgeStyle=orthogonalEdgeStyle;rounded=0;orthogonalLoop=1;jettySize=auto;html=1;fontFamily=Comic Sans MS;" edge="1" parent="1" source="6jc1xSiDu-6yMKRheQOk-13" target="6jc1xSiDu-6yMKRheQOk-6">
          <mxGeometry relative="1" as="geometry" />
        </mxCell>
        <mxCell id="6jc1xSiDu-6yMKRheQOk-22" value="nếu chưa có" style="edgeLabel;html=1;align=center;verticalAlign=middle;resizable=0;points=[];fontFamily=Comic Sans MS;" vertex="1" connectable="0" parent="6jc1xSiDu-6yMKRheQOk-17">
          <mxGeometry x="-0.0913" y="-1" relative="1" as="geometry">
            <mxPoint as="offset" />
          </mxGeometry>
        </mxCell>
        <mxCell id="6jc1xSiDu-6yMKRheQOk-25" value="" style="edgeStyle=orthogonalEdgeStyle;rounded=0;orthogonalLoop=1;jettySize=auto;html=1;fontFamily=Comic Sans MS;" edge="1" parent="1" source="6jc1xSiDu-6yMKRheQOk-13" target="6jc1xSiDu-6yMKRheQOk-24">
          <mxGeometry relative="1" as="geometry" />
        </mxCell>
        <mxCell id="6jc1xSiDu-6yMKRheQOk-26" value="nếu đã có" style="edgeLabel;html=1;align=center;verticalAlign=middle;resizable=0;points=[];fontFamily=Comic Sans MS;" vertex="1" connectable="0" parent="6jc1xSiDu-6yMKRheQOk-25">
          <mxGeometry x="-0.2567" relative="1" as="geometry">
            <mxPoint as="offset" />
          </mxGeometry>
        </mxCell>
        <mxCell id="6jc1xSiDu-6yMKRheQOk-13" value="Duyệt từng Level&amp;nbsp;" style="rhombus;whiteSpace=wrap;html=1;fontFamily=Comic Sans MS;fillColor=#fff2cc;strokeColor=#d6b656;" vertex="1" parent="1">
          <mxGeometry x="212.5" y="350" width="80" height="80" as="geometry" />
        </mxCell>
        <mxCell id="6jc1xSiDu-6yMKRheQOk-24" value="Bỏ qua skip" style="whiteSpace=wrap;html=1;fontFamily=Comic Sans MS;fillColor=#d5e8d4;strokeColor=#82b366;" vertex="1" parent="1">
          <mxGeometry x="192.5" y="520" width="120" height="60" as="geometry" />
        </mxCell>
        <mxCell id="6jc1xSiDu-6yMKRheQOk-35" style="edgeStyle=orthogonalEdgeStyle;rounded=0;orthogonalLoop=1;jettySize=auto;html=1;entryX=0.5;entryY=0;entryDx=0;entryDy=0;fontFamily=Comic Sans MS;" edge="1" parent="1" source="6jc1xSiDu-6yMKRheQOk-31" target="6jc1xSiDu-6yMKRheQOk-3">
          <mxGeometry relative="1" as="geometry" />
        </mxCell>
        <mxCell id="6jc1xSiDu-6yMKRheQOk-31" value="Bắt đầu" style="ellipse;whiteSpace=wrap;html=1;aspect=fixed;fontFamily=Comic Sans MS;fillColor=#dae8fc;strokeColor=#6c8ebf;" vertex="1" parent="1">
          <mxGeometry x="212.5" y="16" width="80" height="80" as="geometry" />
        </mxCell>
        <mxCell id="6jc1xSiDu-6yMKRheQOk-33" value="Kết thúc" style="ellipse;whiteSpace=wrap;html=1;aspect=fixed;fontFamily=Comic Sans MS;fillColor=#dae8fc;strokeColor=#6c8ebf;" vertex="1" parent="1">
          <mxGeometry x="637" y="678" width="80" height="80" as="geometry" />
        </mxCell>
      </root>
    </mxGraphModel>
  </diagram>
</mxfile>
